<?xml version="1.0" encoding="UTF-8" standalone="no"?>
<!-- Generator: Adobe Illustrator 24.2.0, SVG Export Plug-In . SVG Version: 6.00 Build 0)  -->

<svg
   xmlns:dc="http://purl.org/dc/elements/1.1/"
   xmlns:cc="http://creativecommons.org/ns#"
   xmlns:rdf="http://www.w3.org/1999/02/22-rdf-syntax-ns#"
   xmlns:svg="http://www.w3.org/2000/svg"
   xmlns="http://www.w3.org/2000/svg"
   xmlns:sodipodi="http://sodipodi.sourceforge.net/DTD/sodipodi-0.dtd"
   xmlns:inkscape="http://www.inkscape.org/namespaces/inkscape"
   version="1.1"
   id="Layer_1"
   x="0px"
   y="0px"
   viewBox="0 0 740.07 149.79"
   style="enable-background:new 0 0 740.07 149.79;"
   xml:space="preserve"
   sodipodi:docname="GCC_Horz_4CWsvg.svg"
   inkscape:version="0.92.5 (2060ec1f9f, 2020-04-08)"><metadata
   id="metadata21"><rdf:RDF><cc:Work
       rdf:about=""><dc:format>image/svg+xml</dc:format><dc:type
         rdf:resource="http://purl.org/dc/dcmitype/StillImage" /><dc:title></dc:title></cc:Work></rdf:RDF></metadata><defs
   id="defs19" /><sodipodi:namedview
   pagecolor="#ffffff"
   bordercolor="#666666"
   borderopacity="1"
   objecttolerance="10"
   gridtolerance="10"
   guidetolerance="10"
   inkscape:pageopacity="0"
   inkscape:pageshadow="2"
   inkscape:window-width="1920"
   inkscape:window-height="1043"
   id="namedview17"
   showgrid="false"
   inkscape:zoom="2.3160334"
   inkscape:cx="381.05173"
   inkscape:cy="42.998876"
   inkscape:window-x="3840"
   inkscape:window-y="0"
   inkscape:window-maximized="1"
   inkscape:current-layer="Layer_1" />
<style
   type="text/css"
   id="style2">
	.st0{fill-rule:evenodd;clip-rule:evenodd;fill:#9B9B9B;}
	.st1{fill-rule:evenodd;clip-rule:evenodd;}
	.st2{fill-rule:evenodd;clip-rule:evenodd;fill:#C1D82F;}
</style>
<g
   id="g8">
	<polygon
   class="st0"
   points="158.38,82.04 158.38,53.26 135.12,46.13 135.12,58.99 116.63,52.07 116.63,39.21 93.37,28.36    70.11,39.21 70.11,52.07 51.62,58.99 51.62,46.13 28.36,53.26 28.36,82.04 93.37,57.14 158.38,82.04  "
   id="polygon4" />
	<path
   class="st1"
   d="M59.19,93.9l34.18,13.09l34.18-13.09l-9.88-3.78l-13.14,5.03l-15.42-5.9l28.56-10.94l40.71,15.59l-65.01,24.9   L28.36,93.9L93.37,69l15.42,5.91L105.94,76C90.35,81.96,74.77,87.93,59.19,93.9L59.19,93.9z"
   id="path6"
   style="fill:#ffffff;fill-opacity:0;stroke:#c1d82f;stroke-opacity:1" />
</g>
<g
   id="g14">
	<path
   d="M209.95,70.38h-7.84v-3.4h11.68v6.84v2.42c-3.72,2.18-7.72,3.27-12,3.27c-3.87,0-7.02-0.92-9.45-2.78   c-3.06-2.35-4.6-5.62-4.6-9.8c0-3.89,1.35-7,4.07-9.3c2.59-2.18,6.04-3.28,10.34-3.28c1.38,0,2.67,0.12,3.89,0.37   c1.21,0.25,2.59,0.68,4.13,1.3c0.79,0.31,1.51,0.72,2.15,1.24l-1.51,3.85c-1.43-0.95-2.93-1.63-4.5-2.04   c-1.56-0.42-2.99-0.63-4.28-0.63c-2.61,0-4.78,0.71-6.49,2.14c-1.97,1.61-2.96,3.76-2.96,6.42c0,2.57,0.96,4.64,2.88,6.2   c1.73,1.45,4.02,2.18,6.85,2.18c1.36,0,2.7-0.15,4.03-0.46c1.33-0.3,2.53-0.72,3.6-1.24V70.38L209.95,70.38z M225.51,68.45v6.68   h17.51v3.98h-22.25V54.79h21.82v3.98h-17.08v5.81h11.73v3.87H225.51L225.51,68.45z M260.46,54.35c4.18,0,7.49,1.14,9.91,3.42   c2.56,2.4,3.85,5.5,3.85,9.3c0,2.33-0.61,4.5-1.85,6.52c-2.4,3.94-6.36,5.92-11.87,5.92c-4.14,0-7.42-1.14-9.85-3.42   c-1.28-1.24-2.27-2.71-2.96-4.42c-0.6-1.5-0.89-3.08-0.89-4.74c0-2.45,0.62-4.68,1.85-6.7C250.96,56.38,254.9,54.42,260.46,54.35   L260.46,54.35z M260.5,58.44c-2.4,0-4.4,0.69-6,2.07c-1.9,1.64-2.85,3.78-2.85,6.42c0,2.64,0.96,4.77,2.85,6.38   c1.59,1.38,3.6,2.07,6.03,2.07c2.4,0,4.4-0.69,6-2.07c0.95-0.81,1.67-1.81,2.17-2.99c0.45-1.07,0.68-2.17,0.68-3.28   c0-2.76-0.96-4.94-2.85-6.53C264.9,59.15,262.89,58.46,260.5,58.44L260.5,58.44z M284.49,69.18v9.92h-4.74v-24.3h13.8   c1.83,0,3.28,0.11,4.35,0.32c1.07,0.21,2,0.58,2.78,1.1c0.88,0.61,1.55,1.46,2,2.53c0.41,1.02,0.61,2.12,0.61,3.28   c0,3.96-2.27,6.28-6.81,6.94l6.95,10.13h-5.17l-6.85-9.92H284.49L284.49,69.18z M284.49,65.16h8.49c1.24,0,2.11-0.04,2.62-0.11   c0.51-0.07,1-0.21,1.48-0.43c1-0.5,1.5-1.38,1.5-2.64c0-1.29-0.5-2.17-1.5-2.64c-0.46-0.24-0.94-0.39-1.45-0.46   c-0.51-0.07-1.39-0.11-2.65-0.11h-8.49V65.16L284.49,65.16z M329.78,70.38h-7.85v-3.4h11.68v6.84v2.42   c-3.72,2.18-7.72,3.27-12,3.27c-3.87,0-7.02-0.92-9.45-2.78c-3.06-2.35-4.59-5.62-4.59-9.8c0-3.89,1.35-7,4.07-9.3   c2.59-2.18,6.04-3.28,10.34-3.28c1.38,0,2.67,0.12,3.89,0.37c1.21,0.25,2.59,0.68,4.13,1.3c0.79,0.31,1.51,0.72,2.15,1.24   l-1.51,3.85c-1.43-0.95-2.93-1.63-4.5-2.04c-1.57-0.42-2.99-0.63-4.28-0.63c-2.61,0-4.78,0.71-6.49,2.14   c-1.97,1.61-2.96,3.76-2.96,6.42c0,2.57,0.96,4.64,2.88,6.2c1.73,1.45,4.02,2.18,6.85,2.18c1.36,0,2.7-0.15,4.03-0.46   c1.33-0.3,2.53-0.72,3.6-1.24V70.38L329.78,70.38z M340.6,54.79h4.74v24.32h-4.74V54.79L340.6,54.79z M369.27,72.9h-11.41   l-3.1,6.21h-4.35l11.27-24.33h4.21l11.56,24.33h-5.06L369.27,72.9L369.27,72.9z M367.98,69.58l-4.35-8.67l-4.42,8.67H367.98   L367.98,69.58z M413.92,71.53l1.96,3.43c-0.47,0.47-1.21,1-2.21,1.56c-2.02,1.19-3.72,1.98-5.08,2.39c-1.37,0.4-3,0.6-4.91,0.6   c-3.78,0-6.87-0.9-9.27-2.71c-1.43-1.07-2.54-2.38-3.35-3.95c-0.95-1.78-1.42-3.76-1.42-5.92c0-2.95,0.84-5.51,2.53-7.7   c2.55-3.26,6.38-4.88,11.52-4.88c1.9,0,3.53,0.2,4.89,0.6c1.36,0.41,3.06,1.2,5.1,2.39c0.97,0.54,1.71,1.09,2.21,1.64l-1.96,3.42   c-1.05-1.02-1.96-1.75-2.75-2.17c-2.14-1.19-4.41-1.78-6.82-1.78c-2.85,0-5.13,0.7-6.85,2.11c-2.02,1.62-3.03,3.74-3.03,6.38   c0,2.62,1.01,4.74,3.03,6.38c1.72,1.38,4,2.07,6.85,2.07c2.4,0,4.67-0.6,6.82-1.78C411.93,73.17,412.84,72.48,413.92,71.53   L413.92,71.53z M433.74,68.94v10.16H429V68.94l-9.8-14.16h5.6l6.63,9.59l6.77-9.59h5.31L433.74,68.94L433.74,68.94z M467.51,66.38   c3.04,1.02,4.57,2.94,4.57,5.74c0,2.21-0.76,3.94-2.28,5.2c-0.79,0.65-1.69,1.1-2.71,1.38c-1.02,0.27-2.31,0.41-3.85,0.41H448   V54.79h15.05c1.56,0,2.81,0.12,3.74,0.36c0.92,0.24,1.73,0.64,2.42,1.21c1.38,1.11,2.07,2.74,2.07,4.88   C471.29,63.62,470.03,65.33,467.51,66.38L467.51,66.38z M452.75,64.46h9.63c1.47,0,2.52-0.2,3.14-0.61   c0.69-0.48,1.03-1.22,1.03-2.22c0-1.03-0.33-1.77-0.98-2.2c-0.66-0.44-1.72-0.66-3.19-0.66h-9.63V64.46L452.75,64.46z    M452.75,75.13h9.31c1.74,0,3-0.24,3.78-0.71c0.92-0.53,1.39-1.39,1.39-2.61c0-1.22-0.46-2.09-1.39-2.64   c-0.79-0.46-2.05-0.68-3.78-0.68h-9.31V75.13L452.75,75.13z M482.17,68.45v6.68h17.51v3.98h-22.25V54.79h21.82v3.98h-17.08v5.81   h11.73v3.87H482.17L482.17,68.45z M509.91,69.18v9.92h-4.74v-24.3h13.8c1.83,0,3.28,0.11,4.35,0.32c1.07,0.21,2,0.58,2.78,1.1   c0.88,0.61,1.55,1.46,2,2.53c0.41,1.02,0.61,2.12,0.61,3.28c0,3.96-2.27,6.28-6.81,6.94l6.95,10.13h-5.17l-6.85-9.92H509.91   L509.91,69.18z M509.91,65.16h8.49c1.24,0,2.11-0.04,2.62-0.11c0.51-0.07,1-0.21,1.48-0.43c1-0.5,1.5-1.38,1.5-2.64   c0-1.29-0.5-2.17-1.5-2.64c-0.46-0.24-0.94-0.39-1.45-0.46c-0.51-0.07-1.39-0.11-2.65-0.11h-8.49V65.16L509.91,65.16z    M566.37,71.53l1.96,3.43c-0.47,0.47-1.21,1-2.21,1.56c-2.02,1.19-3.72,1.98-5.08,2.39c-1.37,0.4-3,0.6-4.91,0.6   c-3.78,0-6.87-0.9-9.27-2.71c-1.43-1.07-2.54-2.38-3.35-3.95c-0.95-1.78-1.42-3.76-1.42-5.92c0-2.95,0.84-5.51,2.53-7.7   c2.54-3.26,6.38-4.88,11.51-4.88c1.91,0,3.53,0.2,4.89,0.6c1.36,0.41,3.06,1.2,5.1,2.39c0.97,0.54,1.71,1.09,2.21,1.64l-1.96,3.42   c-1.05-1.02-1.96-1.75-2.74-2.17c-2.14-1.19-4.41-1.78-6.82-1.78c-2.85,0-5.13,0.7-6.85,2.11c-2.02,1.62-3.03,3.74-3.03,6.38   c0,2.62,1.01,4.74,3.03,6.38c1.72,1.38,4,2.07,6.85,2.07c2.4,0,4.67-0.6,6.82-1.78C564.38,73.17,565.3,72.48,566.37,71.53   L566.37,71.53z M579.17,68.45v6.68h17.51v3.98h-22.25V54.79h21.82v3.98h-17.08v5.81h11.74v3.87H579.17L579.17,68.45z M606.49,62.46   v16.65h-4.31V54.79h4.27l15.99,16.3v-16.3h4.31v24.32h-3.85L606.49,62.46L606.49,62.46z M645.07,58.77V79.1h-4.74V58.77h-9.42   v-3.98h23.57v3.98H645.07L645.07,58.77z M663.33,68.45v6.68h17.51v3.98h-22.25V54.79h21.83v3.98h-17.08v5.81h11.74v3.87H663.33   L663.33,68.45z M691.08,69.18v9.92h-4.74v-24.3h13.8c1.83,0,3.28,0.11,4.35,0.32c1.07,0.21,2,0.58,2.78,1.1   c0.88,0.61,1.54,1.46,2,2.53c0.41,1.02,0.61,2.12,0.61,3.28c0,3.96-2.27,6.28-6.81,6.94l6.95,10.13h-5.17L698,69.18H691.08   L691.08,69.18z M691.08,65.16h8.49c1.24,0,2.11-0.04,2.62-0.11c0.51-0.07,1-0.21,1.48-0.43c1-0.5,1.5-1.38,1.5-2.64   c0-1.29-0.5-2.17-1.5-2.64c-0.46-0.24-0.94-0.39-1.45-0.46c-0.51-0.07-1.39-0.11-2.65-0.11h-8.49V65.16L691.08,65.16z"
   id="path10"
   style="fill:#ffffff;fill-opacity:0;stroke:#c1d82f;stroke-opacity:1" />
	<polygon
   class="st2"
   points="187.74,90.87 187.74,93.92 710.01,93.92 710.01,90.87 187.74,90.87  "
   id="polygon12" />
</g>
<path
   style="fill:#ffffff;fill-opacity:1;stroke:#c1d82f;stroke-width:0.21588635;stroke-opacity:1"
   d="M 321.2207 54.503906 C 319.81192 54.548555 318.40227 54.711703 317.25977 54.984375 C 312.58001 56.101268 308.87851 59.661102 307.99609 63.892578 C 307.65479 65.529086 307.70171 68.808546 308.08789 70.3125 C 309.34533 75.209391 313.53563 78.601615 319.13086 79.251953 C 321.29544 79.503512 321.81442 79.502208 324.09375 79.248047 C 326.68405 78.959211 329.36331 78.202471 331.66797 77.107422 L 333.44922 76.261719 L 333.44922 71.716797 L 333.44922 67.173828 L 327.72656 67.173828 L 322.00586 67.173828 L 322.00586 68.685547 L 322.00586 70.197266 L 325.89258 70.197266 L 329.7793 70.197266 L 329.7793 72.015625 L 329.7793 73.835938 L 328.53711 74.302734 C 325.61088 75.404229 321.13668 75.736263 318.75391 75.029297 C 315.16037 73.963097 313.01482 71.69748 312.44336 68.361328 C 311.44506 62.533283 316.2341 57.912104 322.76172 58.404297 C 324.93458 58.568134 327.22542 59.197683 329.125 60.154297 L 330.59961 60.898438 L 331.30664 59.144531 L 332.01367 57.392578 L 331.43945 56.935547 C 330.56045 56.234655 327.39375 55.121247 325.18164 54.734375 C 324.03699 54.534189 322.62949 54.459257 321.2207 54.503906 z M 260.48438 54.550781 C 258.81245 54.555048 257.13986 54.690577 256.16211 54.955078 C 253.86468 55.57658 252.08596 56.570834 250.52734 58.107422 C 245.66844 62.897664 245.73621 71.046894 250.67383 75.90625 C 252.51329 77.716549 254.96727 78.819137 258.14648 79.261719 C 259.864 79.500817 263.13781 79.333216 264.75 78.923828 C 269.28747 77.771617 272.72198 74.316682 273.77539 69.847656 C 274.26747 67.760031 274.09008 64.546537 273.37695 62.601562 C 271.95942 58.735417 268.9473 56.042079 264.79688 54.931641 C 263.82682 54.672111 262.15629 54.546514 260.48438 54.550781 z M 202.28906 54.554688 C 200.49112 54.536752 198.68635 54.663584 197.55469 54.943359 C 195.00211 55.574425 192.98997 56.68402 191.27148 58.408203 C 188.86807 60.819582 187.94736 63.134324 187.94336 66.785156 C 187.93878 70.525768 188.79015 72.913355 190.95312 75.224609 C 193.07067 77.487325 195.91528 78.856866 199.31445 79.251953 C 201.47904 79.503512 201.99606 79.502208 204.27539 79.248047 C 206.86569 78.959211 209.54494 78.202471 211.84961 77.107422 L 213.63086 76.261719 L 213.63086 71.716797 L 213.63086 67.173828 L 207.91016 67.173828 L 202.18945 67.173828 L 202.18945 68.685547 L 202.18945 70.197266 L 206.07617 70.197266 L 209.96094 70.197266 L 209.96094 72.015625 L 209.96094 73.835938 L 208.7207 74.302734 C 206.73938 75.048543 204.83947 75.369794 202.40625 75.371094 C 199.97999 75.372364 198.55675 75.090557 197.01562 74.302734 C 193.09726 72.299675 191.51294 67.964866 193.125 63.65625 C 194.04529 61.196536 196.82305 59.098582 199.93164 58.515625 C 202.55095 58.024426 206.42295 58.701096 209.3125 60.15625 L 210.79102 60.902344 L 211.45703 59.160156 C 211.82272 58.202512 212.05852 57.318514 211.98242 57.195312 C 211.74882 56.817343 208.73826 55.519292 206.98242 55.039062 C 205.87793 54.736981 204.08701 54.572623 202.28906 54.554688 z M 220.97266 54.869141 L 220.97266 66.958984 L 220.97266 79.046875 L 231.98242 79.046875 L 242.99219 79.046875 L 242.99219 77.105469 L 242.99219 75.162109 L 234.24805 75.162109 L 225.50586 75.162109 L 225.50586 71.707031 L 225.50586 68.253906 L 231.33398 68.253906 L 237.16406 68.253906 L 237.16406 66.417969 L 237.16406 64.583984 L 231.33398 64.583984 L 225.50586 64.583984 L 225.50586 61.667969 L 225.50586 58.753906 L 234.0332 58.753906 L 242.56055 58.753906 L 242.56055 56.810547 L 242.56055 54.869141 L 231.76562 54.869141 L 220.97266 54.869141 z M 279.9082 54.869141 L 279.9082 66.958984 L 279.9082 79.046875 L 282.17578 79.046875 L 284.44141 79.046875 L 284.44141 74.082031 L 284.44141 69.117188 L 287.9707 69.117188 L 291.49805 69.117188 L 294.92773 74.082031 L 298.35547 79.046875 L 300.80664 79.046875 L 303.25586 79.046875 L 301.36914 76.294922 C 300.33165 74.781019 298.77009 72.508576 297.89844 71.244141 L 296.31445 68.945312 L 297.44922 68.673828 C 301.31125 67.753241 303.07866 65.698138 303.10156 62.101562 C 303.12794 57.95859 301.06999 55.626256 296.91016 55.085938 C 296.04917 54.974106 291.87181 54.8787 287.62695 54.875 L 279.9082 54.869141 z M 340.78906 54.869141 L 340.78906 66.958984 L 340.78906 79.046875 L 343.05469 79.046875 L 345.32227 79.046875 L 345.32227 66.958984 L 345.32227 54.869141 L 343.05469 54.869141 L 340.78906 54.869141 z M 361.70898 54.976562 L 359.1582 60.482422 C 357.75546 63.510228 355.24502 68.925768 353.57812 72.517578 L 350.54688 79.046875 L 352.63281 79.046875 L 354.7207 79.046875 L 356.28125 75.917969 L 357.8418 72.787109 L 363.55273 72.787109 L 369.26562 72.787109 L 370.77344 75.648438 C 371.60271 77.22171 372.36033 78.633295 372.45703 78.787109 C 372.58741 78.994496 373.22857 79.051206 374.94141 79.003906 L 377.25 78.939453 L 371.55859 66.958984 L 365.86719 54.976562 L 363.78711 54.976562 L 361.70898 54.976562 z M 261.05078 58.361328 C 263.14839 58.463726 265.22558 59.225373 266.8457 60.71875 C 268.18987 61.957766 268.84609 63.138189 269.24609 65.044922 C 270.18569 69.523896 267.74622 73.773114 263.51562 75.029297 C 262.09407 75.451404 258.81743 75.470687 257.51758 75.064453 C 255.37871 74.396006 253.13125 72.445771 252.2207 70.46875 C 251.822 69.60315 251.74523 69.048672 251.74023 66.953125 C 251.73476 64.572063 251.76603 64.405195 252.44531 63.025391 C 254.00644 59.854279 257.55477 58.190665 261.05078 58.361328 z M 284.44141 58.753906 L 290.22461 58.753906 C 295.79266 58.753906 296.04523 58.77256 296.97266 59.240234 C 298.21654 59.867488 298.74843 60.846989 298.625 62.279297 C 298.50686 63.650285 297.92894 64.390746 296.62305 64.84375 C 295.73215 65.152801 294.666 65.212803 290.00195 65.220703 L 284.44141 65.230469 L 284.44141 61.992188 L 284.44141 58.753906 z M 363.62305 60.914062 C 363.80073 60.914062 367.99023 69.199469 367.99023 69.550781 C 367.99023 69.685828 366.3513 69.763672 363.56445 69.763672 C 361.13033 69.763672 359.13867 69.714797 359.13867 69.654297 C 359.13867 69.373637 363.47911 60.914062 363.62305 60.914062 z "
   id="path29" /></svg>