<?xml version="1.0" encoding="UTF-8" standalone="no"?>
<!-- Generator: Adobe Illustrator 24.2.0, SVG Export Plug-In . SVG Version: 6.00 Build 0)  -->

<svg
   xmlns:dc="http://purl.org/dc/elements/1.1/"
   xmlns:cc="http://creativecommons.org/ns#"
   xmlns:rdf="http://www.w3.org/1999/02/22-rdf-syntax-ns#"
   xmlns:svg="http://www.w3.org/2000/svg"
   xmlns="http://www.w3.org/2000/svg"
   xmlns:sodipodi="http://sodipodi.sourceforge.net/DTD/sodipodi-0.dtd"
   xmlns:inkscape="http://www.inkscape.org/namespaces/inkscape"
   version="1.1"
   id="Layer_1"
   x="0px"
   y="0px"
   viewBox="0 0 740.07 149.79"
   style="enable-background:new 0 0 740.07 149.79;"
   xml:space="preserve"
   sodipodi:docname="GCC_Horz_4C_W.svg"
   inkscape:version="0.92.5 (2060ec1f9f, 2020-04-08)"><metadata
   id="metadata21"><rdf:RDF><cc:Work
       rdf:about=""><dc:format>image/svg+xml</dc:format><dc:type
         rdf:resource="http://purl.org/dc/dcmitype/StillImage" /><dc:title></dc:title></cc:Work></rdf:RDF></metadata><defs
   id="defs19" /><sodipodi:namedview
   pagecolor="#ffffff"
   bordercolor="#666666"
   borderopacity="1"
   objecttolerance="10"
   gridtolerance="10"
   guidetolerance="10"
   inkscape:pageopacity="0"
   inkscape:pageshadow="2"
   inkscape:window-width="1920"
   inkscape:window-height="1043"
   id="namedview17"
   showgrid="false"
   inkscape:zoom="1.6376829"
   inkscape:cx="457.49155"
   inkscape:cy="78.293801"
   inkscape:window-x="3840"
   inkscape:window-y="0"
   inkscape:window-maximized="1"
   inkscape:current-layer="Layer_1" />
<style
   type="text/css"
   id="style2">
	.st0{fill-rule:evenodd;clip-rule:evenodd;fill:#9B9B9B;}
	.st1{fill-rule:evenodd;clip-rule:evenodd;}
	.st2{fill-rule:evenodd;clip-rule:evenodd;fill:#C1D82F;}
</style>
<g
   id="g8">
	<polygon
   class="st0"
   points="158.38,82.04 158.38,53.26 135.12,46.13 135.12,58.99 116.63,52.07 116.63,39.21 93.37,28.36    70.11,39.21 70.11,52.07 51.62,58.99 51.62,46.13 28.36,53.26 28.36,82.04 93.37,57.14 158.38,82.04  "
   id="polygon4" />
	<path
   class="st1"
   d="M59.19,93.9l34.18,13.09l34.18-13.09l-9.88-3.78l-13.14,5.03l-15.42-5.9l28.56-10.94l40.71,15.59l-65.01,24.9   L28.36,93.9L93.37,69l15.42,5.91L105.94,76C90.35,81.96,74.77,87.93,59.19,93.9L59.19,93.9z"
   id="path6"
   style="fill:#ffffff;fill-opacity:0" />
</g>
<g
   id="g14">
	<path
   d="M209.95,70.38h-7.84v-3.4h11.68v6.84v2.42c-3.72,2.18-7.72,3.27-12,3.27c-3.87,0-7.02-0.92-9.45-2.78   c-3.06-2.35-4.6-5.62-4.6-9.8c0-3.89,1.35-7,4.07-9.3c2.59-2.18,6.04-3.28,10.34-3.28c1.38,0,2.67,0.12,3.89,0.37   c1.21,0.25,2.59,0.68,4.13,1.3c0.79,0.31,1.51,0.72,2.15,1.24l-1.51,3.85c-1.43-0.95-2.93-1.63-4.5-2.04   c-1.56-0.42-2.99-0.63-4.28-0.63c-2.61,0-4.78,0.71-6.49,2.14c-1.97,1.61-2.96,3.76-2.96,6.42c0,2.57,0.96,4.64,2.88,6.2   c1.73,1.45,4.02,2.18,6.85,2.18c1.36,0,2.7-0.15,4.03-0.46c1.33-0.3,2.53-0.72,3.6-1.24V70.38L209.95,70.38z M225.51,68.45v6.68   h17.51v3.98h-22.25V54.79h21.82v3.98h-17.08v5.81h11.73v3.87H225.51L225.51,68.45z M260.46,54.35c4.18,0,7.49,1.14,9.91,3.42   c2.56,2.4,3.85,5.5,3.85,9.3c0,2.33-0.61,4.5-1.85,6.52c-2.4,3.94-6.36,5.92-11.87,5.92c-4.14,0-7.42-1.14-9.85-3.42   c-1.28-1.24-2.27-2.71-2.96-4.42c-0.6-1.5-0.89-3.08-0.89-4.74c0-2.45,0.62-4.68,1.85-6.7C250.96,56.38,254.9,54.42,260.46,54.35   L260.46,54.35z M260.5,58.44c-2.4,0-4.4,0.69-6,2.07c-1.9,1.64-2.85,3.78-2.85,6.42c0,2.64,0.96,4.77,2.85,6.38   c1.59,1.38,3.6,2.07,6.03,2.07c2.4,0,4.4-0.69,6-2.07c0.95-0.81,1.67-1.81,2.17-2.99c0.45-1.07,0.68-2.17,0.68-3.28   c0-2.76-0.96-4.94-2.85-6.53C264.9,59.15,262.89,58.46,260.5,58.44L260.5,58.44z M284.49,69.18v9.92h-4.74v-24.3h13.8   c1.83,0,3.28,0.11,4.35,0.32c1.07,0.21,2,0.58,2.78,1.1c0.88,0.61,1.55,1.46,2,2.53c0.41,1.02,0.61,2.12,0.61,3.28   c0,3.96-2.27,6.28-6.81,6.94l6.95,10.13h-5.17l-6.85-9.92H284.49L284.49,69.18z M284.49,65.16h8.49c1.24,0,2.11-0.04,2.62-0.11   c0.51-0.07,1-0.21,1.48-0.43c1-0.5,1.5-1.38,1.5-2.64c0-1.29-0.5-2.17-1.5-2.64c-0.46-0.24-0.94-0.39-1.45-0.46   c-0.51-0.07-1.39-0.11-2.65-0.11h-8.49V65.16L284.49,65.16z M329.78,70.38h-7.85v-3.4h11.68v6.84v2.42   c-3.72,2.18-7.72,3.27-12,3.27c-3.87,0-7.02-0.92-9.45-2.78c-3.06-2.35-4.59-5.62-4.59-9.8c0-3.89,1.35-7,4.07-9.3   c2.59-2.18,6.04-3.28,10.34-3.28c1.38,0,2.67,0.12,3.89,0.37c1.21,0.25,2.59,0.68,4.13,1.3c0.79,0.31,1.51,0.72,2.15,1.24   l-1.51,3.85c-1.43-0.95-2.93-1.63-4.5-2.04c-1.57-0.42-2.99-0.63-4.28-0.63c-2.61,0-4.78,0.71-6.49,2.14   c-1.97,1.61-2.96,3.76-2.96,6.42c0,2.57,0.96,4.64,2.88,6.2c1.73,1.45,4.02,2.18,6.85,2.18c1.36,0,2.7-0.15,4.03-0.46   c1.33-0.3,2.53-0.72,3.6-1.24V70.38L329.78,70.38z M340.6,54.79h4.74v24.32h-4.74V54.79L340.6,54.79z M369.27,72.9h-11.41   l-3.1,6.21h-4.35l11.27-24.33h4.21l11.56,24.33h-5.06L369.27,72.9L369.27,72.9z M367.98,69.58l-4.35-8.67l-4.42,8.67H367.98   L367.98,69.58z M413.92,71.53l1.96,3.43c-0.47,0.47-1.21,1-2.21,1.56c-2.02,1.19-3.72,1.98-5.08,2.39c-1.37,0.4-3,0.6-4.91,0.6   c-3.78,0-6.87-0.9-9.27-2.71c-1.43-1.07-2.54-2.38-3.35-3.95c-0.95-1.78-1.42-3.76-1.42-5.92c0-2.95,0.84-5.51,2.53-7.7   c2.55-3.26,6.38-4.88,11.52-4.88c1.9,0,3.53,0.2,4.89,0.6c1.36,0.41,3.06,1.2,5.1,2.39c0.97,0.54,1.71,1.09,2.21,1.64l-1.96,3.42   c-1.05-1.02-1.96-1.75-2.75-2.17c-2.14-1.19-4.41-1.78-6.82-1.78c-2.85,0-5.13,0.7-6.85,2.11c-2.02,1.62-3.03,3.74-3.03,6.38   c0,2.62,1.01,4.74,3.03,6.38c1.72,1.38,4,2.07,6.85,2.07c2.4,0,4.67-0.6,6.82-1.78C411.93,73.17,412.84,72.48,413.92,71.53   L413.92,71.53z M433.74,68.94v10.16H429V68.94l-9.8-14.16h5.6l6.63,9.59l6.77-9.59h5.31L433.74,68.94L433.74,68.94z M467.51,66.38   c3.04,1.02,4.57,2.94,4.57,5.74c0,2.21-0.76,3.94-2.28,5.2c-0.79,0.65-1.69,1.1-2.71,1.38c-1.02,0.27-2.31,0.41-3.85,0.41H448   V54.79h15.05c1.56,0,2.81,0.12,3.74,0.36c0.92,0.24,1.73,0.64,2.42,1.21c1.38,1.11,2.07,2.74,2.07,4.88   C471.29,63.62,470.03,65.33,467.51,66.38L467.51,66.38z M452.75,64.46h9.63c1.47,0,2.52-0.2,3.14-0.61   c0.69-0.48,1.03-1.22,1.03-2.22c0-1.03-0.33-1.77-0.98-2.2c-0.66-0.44-1.72-0.66-3.19-0.66h-9.63V64.46L452.75,64.46z    M452.75,75.13h9.31c1.74,0,3-0.24,3.78-0.71c0.92-0.53,1.39-1.39,1.39-2.61c0-1.22-0.46-2.09-1.39-2.64   c-0.79-0.46-2.05-0.68-3.78-0.68h-9.31V75.13L452.75,75.13z M482.17,68.45v6.68h17.51v3.98h-22.25V54.79h21.82v3.98h-17.08v5.81   h11.73v3.87H482.17L482.17,68.45z M509.91,69.18v9.92h-4.74v-24.3h13.8c1.83,0,3.28,0.11,4.35,0.32c1.07,0.21,2,0.58,2.78,1.1   c0.88,0.61,1.55,1.46,2,2.53c0.41,1.02,0.61,2.12,0.61,3.28c0,3.96-2.27,6.28-6.81,6.94l6.95,10.13h-5.17l-6.85-9.92H509.91   L509.91,69.18z M509.91,65.16h8.49c1.24,0,2.11-0.04,2.62-0.11c0.51-0.07,1-0.21,1.48-0.43c1-0.5,1.5-1.38,1.5-2.64   c0-1.29-0.5-2.17-1.5-2.64c-0.46-0.24-0.94-0.39-1.45-0.46c-0.51-0.07-1.39-0.11-2.65-0.11h-8.49V65.16L509.91,65.16z    M566.37,71.53l1.96,3.43c-0.47,0.47-1.21,1-2.21,1.56c-2.02,1.19-3.72,1.98-5.08,2.39c-1.37,0.4-3,0.6-4.91,0.6   c-3.78,0-6.87-0.9-9.27-2.71c-1.43-1.07-2.54-2.38-3.35-3.95c-0.95-1.78-1.42-3.76-1.42-5.92c0-2.95,0.84-5.51,2.53-7.7   c2.54-3.26,6.38-4.88,11.51-4.88c1.91,0,3.53,0.2,4.89,0.6c1.36,0.41,3.06,1.2,5.1,2.39c0.97,0.54,1.71,1.09,2.21,1.64l-1.96,3.42   c-1.05-1.02-1.96-1.75-2.74-2.17c-2.14-1.19-4.41-1.78-6.82-1.78c-2.85,0-5.13,0.7-6.85,2.11c-2.02,1.62-3.03,3.74-3.03,6.38   c0,2.62,1.01,4.74,3.03,6.38c1.72,1.38,4,2.07,6.85,2.07c2.4,0,4.67-0.6,6.82-1.78C564.38,73.17,565.3,72.48,566.37,71.53   L566.37,71.53z M579.17,68.45v6.68h17.51v3.98h-22.25V54.79h21.82v3.98h-17.08v5.81h11.74v3.87H579.17L579.17,68.45z M606.49,62.46   v16.65h-4.31V54.79h4.27l15.99,16.3v-16.3h4.31v24.32h-3.85L606.49,62.46L606.49,62.46z M645.07,58.77V79.1h-4.74V58.77h-9.42   v-3.98h23.57v3.98H645.07L645.07,58.77z M663.33,68.45v6.68h17.51v3.98h-22.25V54.79h21.83v3.98h-17.08v5.81h11.74v3.87H663.33   L663.33,68.45z M691.08,69.18v9.92h-4.74v-24.3h13.8c1.83,0,3.28,0.11,4.35,0.32c1.07,0.21,2,0.58,2.78,1.1   c0.88,0.61,1.54,1.46,2,2.53c0.41,1.02,0.61,2.12,0.61,3.28c0,3.96-2.27,6.28-6.81,6.94l6.95,10.13h-5.17L698,69.18H691.08   L691.08,69.18z M691.08,65.16h8.49c1.24,0,2.11-0.04,2.62-0.11c0.51-0.07,1-0.21,1.48-0.43c1-0.5,1.5-1.38,1.5-2.64   c0-1.29-0.5-2.17-1.5-2.64c-0.46-0.24-0.94-0.39-1.45-0.46c-0.51-0.07-1.39-0.11-2.65-0.11h-8.49V65.16L691.08,65.16z"
   id="path10"
   style="fill:#ffffff;fill-opacity:0" />
	<polygon
   class="st2"
   points="187.74,90.87 187.74,93.92 710.01,93.92 710.01,90.87 187.74,90.87  "
   id="polygon12" />
</g>
<path
   style="fill:#000000;fill-opacity:0;stroke-width:0.30530941"
   d="M 220.99427,67.021031 V 54.961309 h 10.68583 10.68583 v 1.831857 1.831856 h -8.54866 -8.54867 v 3.053094 3.053095 h 5.95354 5.95353 v 1.831856 1.831856 h -5.96353 -5.96354 l 0.0863,3.434731 0.0863,3.434731 8.77764,0.08101 8.77765,0.08101 v 1.827174 1.827175 h -10.99114 -10.99114 z"
   id="path3726"
   inkscape:connector-curvature="0" /><path
   style="fill:#000000;fill-opacity:0;stroke-width:0.30530941"
   d="M 220.99427,67.021031 V 54.961309 h 10.68583 10.68583 v 1.831857 1.831856 h -8.54866 -8.54867 v 3.053094 3.053095 h 5.95354 5.95353 v 1.831856 1.831856 h -5.96353 -5.96354 l 0.0863,3.434731 0.0863,3.434731 8.77764,0.08101 8.77765,0.08101 v 1.827174 1.827175 h -10.99114 -10.99114 z"
   id="path3728"
   inkscape:connector-curvature="0" /><path
   style="fill:#000000;fill-opacity:0;stroke-width:0.03816368"
   d="M 220.76885,66.956249 V 54.8202 h 10.89573 10.89573 v 1.96543 1.965429 h -8.52958 -8.52958 v 2.919521 2.919521 h 5.85812 5.85813 v 1.927266 1.927266 h -5.85813 -5.85812 v 3.358403 3.358404 h 8.75856 8.75857 v 1.965429 1.965429 h -11.12472 -11.12471 z"
   id="path3730"
   inkscape:connector-curvature="0" /><path
   style="fill:#000000;fill-opacity:0;stroke-width:0.03816368"
   d="M 220.76885,66.956249 V 54.8202 h 10.89573 10.89573 v 1.96543 1.965429 h -8.52958 -8.52958 v 2.919521 2.919521 h 5.85812 5.85813 v 1.927266 1.927266 h -5.85813 -5.85812 v 3.358403 3.358404 h 8.75856 8.75857 v 1.965429 1.965429 h -11.12472 -11.12471 z"
   id="path3732"
   inkscape:connector-curvature="0" /><path
   style="fill:#000000;fill-opacity:0;stroke-width:0.03816368"
   d="M 220.76885,66.956249 V 54.8202 h 10.89573 10.89573 v 1.96543 1.965429 h -8.52958 -8.52958 v 2.919521 2.919521 h 5.85812 5.85813 v 1.927266 1.927266 h -5.85813 -5.85812 v 3.358403 3.358404 h 8.75856 8.75857 v 1.965429 1.965429 h -11.12472 -11.12471 z"
   id="path3734"
   inkscape:connector-curvature="0" /><path
   style="fill:#ffffff;fill-opacity:0;stroke-width:0.03816368"
   d="M 220.76885,66.956249 V 54.8202 h 10.89573 10.89573 v 1.96543 1.965429 h -8.52958 -8.52958 v 2.919521 2.919521 h 5.85812 5.85813 v 1.927266 1.927266 h -5.85813 -5.85812 v 3.358403 3.358404 h 8.75856 8.75857 v 1.965429 1.965429 h -11.12472 -11.12471 z"
   id="path3736"
   inkscape:connector-curvature="0" /><path
   style="fill:#ffffff;fill-opacity:0;stroke-width:0.03816368"
   d="M 220.76885,66.956249 V 54.8202 h 10.89573 10.89573 v 1.96543 1.965429 h -8.52958 -8.52958 v 2.919521 2.919521 h 5.85812 5.85813 v 1.927266 1.927266 h -5.85813 -5.85812 v 3.358403 3.358404 h 8.75856 8.75857 v 1.965429 1.965429 h -11.12472 -11.12471 z"
   id="path3738"
   inkscape:connector-curvature="0" /><path
   style="fill:#ffffff;fill-opacity:0;stroke-width:0.03816368"
   d="M 220.76885,66.956249 V 54.8202 h 10.89573 10.89573 v 1.96543 1.965429 h -8.52958 -8.52958 v 2.919521 2.919521 h 5.85812 5.85813 v 1.927266 1.927266 h -5.85813 -5.85812 v 3.358403 3.358404 h 8.75856 8.75857 v 1.965429 1.965429 h -11.12472 -11.12471 z"
   id="path3740"
   inkscape:connector-curvature="0" /><path
   style="fill:#ffffff;fill-opacity:0;stroke-width:0.03816368"
   d="M 220.76885,66.956249 V 54.8202 h 10.89573 10.89573 v 1.96543 1.965429 h -8.52958 -8.52958 v 2.919521 2.919521 h 5.85812 5.85813 v 1.927266 1.927266 h -5.85813 -5.85812 v 3.358403 3.358404 h 8.75856 8.75857 v 1.965429 1.965429 h -11.12472 -11.12471 z"
   id="path3742"
   inkscape:connector-curvature="0" /><path
   style="fill:#ffffff;fill-opacity:0;stroke-width:0.03816368"
   d="M 220.76885,66.956249 V 54.8202 h 10.89573 10.89573 v 1.96543 1.965429 h -8.52958 -8.52958 v 2.919521 2.919521 h 5.85812 5.85813 v 1.927266 1.927266 h -5.85813 -5.85812 v 3.358403 3.358404 h 8.75856 8.75857 v 1.965429 1.965429 h -11.12472 -11.12471 z"
   id="path3744"
   inkscape:connector-curvature="0" /><path
   style="fill:#ffffff;fill-opacity:0;stroke-width:0.03816368"
   d="M 220.76885,66.956249 V 54.8202 h 10.89573 10.89573 v 1.96543 1.965429 h -8.52958 -8.52958 v 2.919521 2.919521 h 5.85812 5.85813 v 1.927266 1.927266 h -5.85813 -5.85812 v 3.358403 3.358404 h 8.75856 8.75857 v 1.965429 1.965429 h -11.12472 -11.12471 z"
   id="path3746"
   inkscape:connector-curvature="0" /><path
   style="fill:#ffffff;fill-opacity:0;stroke-width:0.03816368"
   d="M 220.76885,66.956249 V 54.8202 h 10.89573 10.89573 v 1.96543 1.965429 h -8.52958 -8.52958 v 2.919521 2.919521 h 5.85812 5.85813 v 1.927266 1.927266 h -5.85813 -5.85812 v 3.358403 3.358404 h 8.75856 8.75857 v 1.965429 1.965429 h -11.12472 -11.12471 z"
   id="path3748"
   inkscape:connector-curvature="0" /><path
   style="fill:#ffffff;fill-opacity:0;stroke-width:0.03816368"
   d="m 259.0661,79.449649 c -4.5355,-0.350609 -7.85883,-2.115137 -10.05309,-5.33771 -1.07958,-1.585512 -1.76836,-3.354589 -2.06538,-5.304751 -0.10323,-0.677764 -0.14544,-2.326964 -0.0784,-3.060736 0.20869,-2.28221 0.9411,-4.303658 2.24276,-6.189961 1.8952,-2.746435 4.83558,-4.442102 8.63742,-4.981055 1.7672,-0.250521 3.50929,-0.269831 5.19026,-0.05753 2.80647,0.354448 5.08995,1.29159 6.94578,2.850564 0.48375,0.406368 1.32266,1.26977 1.71443,1.764499 1.66032,2.096605 2.50765,4.553205 2.58654,7.49889 0.074,2.762372 -0.60414,5.109556 -2.14452,7.422835 -1.4748,2.21481 -3.54702,3.785331 -6.11627,4.635479 -0.98635,0.32638 -2.0095,0.544221 -3.25311,0.692631 -0.49077,0.05857 -3.09027,0.106749 -3.60647,0.06685 z m 2.97717,-4.149911 c 1.84214,-0.277404 3.24814,-0.902595 4.54108,-2.019242 1.40751,-1.215598 2.33528,-2.895293 2.69882,-4.886105 0.0725,-0.397077 0.0851,-0.601492 0.086,-1.399978 0.002,-1.258053 -0.1007,-1.955766 -0.43602,-2.976767 -0.45626,-1.389243 -1.26497,-2.572317 -2.41698,-3.535815 -1.75062,-1.464143 -4.09894,-2.180863 -6.66455,-2.03405 -2.4416,0.139716 -4.39331,0.994295 -5.94092,2.601294 -1.18482,1.230288 -1.86058,2.584166 -2.15791,4.323382 -0.10061,0.588492 -0.13842,1.878681 -0.0739,2.522798 0.23101,2.307278 1.23265,4.160024 3.03394,5.611885 1.26751,1.021636 2.76325,1.619401 4.56883,1.825914 0.6022,0.06888 2.21196,0.04946 2.76163,-0.03332 z"
   id="path3750"
   inkscape:connector-curvature="0" /><path
   style="fill:#ffffff;fill-opacity:0;stroke-width:0.03816368"
   d="m 259.0661,79.449649 c -4.5355,-0.350609 -7.85883,-2.115137 -10.05309,-5.33771 -1.07958,-1.585512 -1.76836,-3.354589 -2.06538,-5.304751 -0.10323,-0.677764 -0.14544,-2.326964 -0.0784,-3.060736 0.20869,-2.28221 0.9411,-4.303658 2.24276,-6.189961 1.8952,-2.746435 4.83558,-4.442102 8.63742,-4.981055 1.7672,-0.250521 3.50929,-0.269831 5.19026,-0.05753 2.80647,0.354448 5.08995,1.29159 6.94578,2.850564 0.48375,0.406368 1.32266,1.26977 1.71443,1.764499 1.66032,2.096605 2.50765,4.553205 2.58654,7.49889 0.074,2.762372 -0.60414,5.109556 -2.14452,7.422835 -1.4748,2.21481 -3.54702,3.785331 -6.11627,4.635479 -0.98635,0.32638 -2.0095,0.544221 -3.25311,0.692631 -0.49077,0.05857 -3.09027,0.106749 -3.60647,0.06685 z m 2.97717,-4.149911 c 1.84214,-0.277404 3.24814,-0.902595 4.54108,-2.019242 1.40751,-1.215598 2.33528,-2.895293 2.69882,-4.886105 0.0725,-0.397077 0.0851,-0.601492 0.086,-1.399978 0.002,-1.258053 -0.1007,-1.955766 -0.43602,-2.976767 -0.45626,-1.389243 -1.26497,-2.572317 -2.41698,-3.535815 -1.75062,-1.464143 -4.09894,-2.180863 -6.66455,-2.03405 -2.4416,0.139716 -4.39331,0.994295 -5.94092,2.601294 -1.18482,1.230288 -1.86058,2.584166 -2.15791,4.323382 -0.10061,0.588492 -0.13842,1.878681 -0.0739,2.522798 0.23101,2.307278 1.23265,4.160024 3.03394,5.611885 1.26751,1.021636 2.76325,1.619401 4.56883,1.825914 0.6022,0.06888 2.21196,0.04946 2.76163,-0.03332 z"
   id="path3752"
   inkscape:connector-curvature="0" /><path
   style="fill:#ffffff;fill-opacity:0;stroke-width:0.03816368"
   d="M 220.76885,66.956249 V 54.8202 h 10.89573 10.89573 v 1.96543 1.965429 h -8.52958 -8.52958 v 2.919521 2.919521 h 5.85812 5.85813 v 1.927266 1.927266 h -5.85813 -5.85812 v 3.358403 3.358404 h 8.75856 8.75857 v 1.965429 1.965429 h -11.12472 -11.12471 z"
   id="path3754"
   inkscape:connector-curvature="0" /><path
   style="fill:#ffffff;fill-opacity:0;stroke-width:0.07632735"
   d="m 187.74511,92.421717 v -1.488383 h 94.07346 94.07346 v 1.488383 1.488384 h -94.07346 -94.07346 z"
   id="path3756"
   inkscape:connector-curvature="0" /><path
   style="fill:#ffffff;fill-opacity:0;stroke-width:0.07632735"
   d="m 187.74511,92.421717 v -1.488383 h 94.07346 94.07346 v 1.488383 1.488384 h -94.07346 -94.07346 z"
   id="path3758"
   inkscape:connector-curvature="0" /><path
   style="fill:#ffffff;fill-opacity:0;stroke-width:0.07632735"
   d="m 187.74511,92.421717 v -1.488383 h 94.07346 94.07346 v 1.488383 1.488384 h -94.07346 -94.07346 z"
   id="path3760"
   inkscape:connector-curvature="0" /><path
   style="fill:#ffffff;fill-opacity:0;stroke-width:0.07632735"
   d="m 187.74511,92.421717 v -1.488383 h 94.07346 94.07346 v 1.488383 1.488384 h -94.07346 -94.07346 z"
   id="path3762"
   inkscape:connector-curvature="0" /><path
   style="fill:#ffffff;fill-opacity:0;stroke-width:0.07632735"
   d="m 187.74511,92.421717 v -1.488383 h 94.07346 94.07346 v 1.488383 1.488384 h -94.07346 -94.07346 z"
   id="path3764"
   inkscape:connector-curvature="0" /><path
   style="fill:#ffffff;fill-opacity:0;stroke-width:0.00477046"
   d="M 231.20389,92.394751 V 90.87059 h 6.69534 6.69534 v 1.524161 1.524162 h -6.69534 -6.69534 z"
   id="path3766"
   inkscape:connector-curvature="0" /><path
   style="fill:#ffffff;fill-opacity:0;stroke-width:0.00477046"
   d="M 231.20389,92.394751 V 90.87059 h 6.69534 6.69534 v 1.524161 1.524162 h -6.69534 -6.69534 z"
   id="path3768"
   inkscape:connector-curvature="0" /><path
   style="fill:#ffffff;fill-opacity:0;stroke-width:0.00477046"
   d="M 231.20389,92.394751 V 90.87059 h 6.69534 6.69534 v 1.524161 1.524162 h -6.69534 -6.69534 z"
   id="path3770"
   inkscape:connector-curvature="0" /><path
   style="fill:#ffffff;fill-opacity:0;stroke-width:0.61061883"
   d="M 61.360111,106.28426 C 44.152427,99.677668 30.070031,94.119089 30.065897,93.931864 c -0.0084,-0.380156 62.35574,-24.389652 63.351586,-24.389652 1.272677,0 14.358847,5.317856 13.824867,5.618039 -0.30322,0.170454 -11.198974,4.375588 -24.212787,9.344743 -13.013814,4.969155 -23.661479,9.201035 -23.661479,9.404178 0,0.203143 7.664068,3.299818 17.031264,6.881498 l 17.031264,6.51215 16.626918,-6.37241 c 9.1448,-3.50482 16.91706,-6.55172 17.27168,-6.770885 0.35461,-0.219165 -1.66376,-1.288346 -4.48526,-2.375958 l -5.13001,-1.977476 -3.9849,1.529738 c -9.85509,3.783207 -8.40994,3.714569 -16.268369,0.772666 -3.846239,-1.439887 -6.7776,-2.810408 -6.51413,-3.045602 0.263464,-0.235194 6.387781,-2.679585 13.609579,-5.431979 l 13.13055,-5.004355 19.65686,7.517548 c 10.81128,4.134651 19.46579,7.701681 19.23225,7.926732 -0.54928,0.529325 -62.75334,24.336191 -63.422383,24.273141 -0.278626,-0.0263 -14.585602,-5.45313 -31.793286,-12.05972 z"
   id="path3772"
   inkscape:connector-curvature="0" /></svg>