<?xml version="1.0" encoding="utf-8"?>
<!-- Generator: Adobe Illustrator 24.2.0, SVG Export Plug-In . SVG Version: 6.00 Build 0)  -->
<svg version="1.1" id="Layer_1" xmlns="http://www.w3.org/2000/svg" xmlns:xlink="http://www.w3.org/1999/xlink" x="0px" y="0px"
	 viewBox="0 0 581.69 218.54" style="enable-background:new 0 0 581.69 218.54;" xml:space="preserve">
<style type="text/css">
	.st0{fill-rule:evenodd;clip-rule:evenodd;fill:#FFFFFF;}
	.st1{fill:#FFFFFF;}
</style>
<g>
	<polygon class="st0" points="350.15,82.42 350.15,53.64 326.89,46.51 326.89,59.38 308.39,52.45 308.39,39.59 285.13,28.74 
		261.87,39.59 261.87,52.45 243.38,59.38 243.38,46.51 220.12,53.64 220.12,82.42 285.13,57.52 350.15,82.42 	"/>
	<path class="st0" d="M250.96,94.28l34.18,13.09l34.18-13.09l-9.88-3.78l-13.14,5.03l-15.42-5.9l28.56-10.94l40.71,15.59
		l-65.01,24.9l-65.01-24.9l65.01-24.9l15.42,5.91l-2.85,1.09C282.12,82.35,266.54,88.31,250.96,94.28L250.96,94.28z"/>
</g>
<g>
	<path class="st1" d="M51.57,167.21h-7.84v-3.4h11.68v6.84v2.42c-3.72,2.18-7.72,3.27-12,3.27c-3.87,0-7.02-0.92-9.45-2.78
		c-3.06-2.35-4.6-5.62-4.6-9.8c0-3.89,1.35-7,4.07-9.3c2.59-2.18,6.04-3.28,10.34-3.28c1.38,0,2.67,0.12,3.89,0.37
		c1.21,0.25,2.59,0.68,4.13,1.3c0.79,0.31,1.51,0.72,2.15,1.24l-1.51,3.85c-1.43-0.95-2.93-1.63-4.5-2.04
		c-1.56-0.42-2.99-0.63-4.28-0.63c-2.61,0-4.78,0.71-6.49,2.14c-1.97,1.61-2.96,3.76-2.96,6.42c0,2.57,0.96,4.64,2.88,6.2
		c1.73,1.45,4.02,2.18,6.85,2.18c1.36,0,2.7-0.15,4.03-0.46c1.33-0.3,2.53-0.72,3.6-1.24V167.21L51.57,167.21z M67.13,165.27v6.68
		h17.51v3.98H62.39v-24.32h21.82v3.98H67.13v5.81h11.73v3.87H67.13L67.13,165.27z M102.08,151.18c4.18,0,7.49,1.14,9.91,3.42
		c2.56,2.4,3.85,5.5,3.85,9.3c0,2.33-0.61,4.5-1.85,6.52c-2.4,3.94-6.36,5.92-11.87,5.92c-4.14,0-7.42-1.14-9.85-3.42
		c-1.28-1.24-2.27-2.71-2.96-4.42c-0.6-1.5-0.89-3.08-0.89-4.74c0-2.45,0.62-4.68,1.85-6.7C92.58,153.21,96.52,151.25,102.08,151.18
		L102.08,151.18z M102.12,155.27c-2.4,0-4.4,0.69-6,2.07c-1.9,1.64-2.85,3.78-2.85,6.42c0,2.64,0.96,4.77,2.85,6.38
		c1.59,1.38,3.6,2.07,6.03,2.07c2.4,0,4.4-0.69,6-2.07c0.95-0.81,1.67-1.81,2.17-2.99c0.45-1.07,0.68-2.17,0.68-3.28
		c0-2.76-0.96-4.94-2.85-6.53C106.52,155.98,104.52,155.29,102.12,155.27L102.12,155.27z M126.11,166v9.92h-4.74v-24.3h13.8
		c1.83,0,3.28,0.11,4.35,0.32c1.07,0.21,2,0.58,2.78,1.1c0.88,0.61,1.55,1.46,2,2.52c0.41,1.02,0.61,2.12,0.61,3.28
		c0,3.96-2.27,6.28-6.81,6.94l6.95,10.13h-5.17l-6.85-9.92H126.11L126.11,166z M126.11,161.99h8.49c1.24,0,2.11-0.04,2.62-0.11
		c0.51-0.07,1-0.21,1.48-0.43c1-0.5,1.5-1.38,1.5-2.64c0-1.29-0.5-2.17-1.5-2.64c-0.46-0.24-0.94-0.39-1.45-0.46
		c-0.51-0.07-1.39-0.11-2.65-0.11h-8.49V161.99L126.11,161.99z M171.4,167.21h-7.85v-3.4h11.68v6.84v2.42
		c-3.72,2.18-7.72,3.27-12,3.27c-3.87,0-7.02-0.92-9.45-2.78c-3.06-2.35-4.59-5.62-4.59-9.8c0-3.89,1.35-7,4.07-9.3
		c2.59-2.18,6.04-3.28,10.34-3.28c1.38,0,2.67,0.12,3.89,0.37c1.21,0.25,2.59,0.68,4.13,1.3c0.79,0.31,1.51,0.72,2.15,1.24
		l-1.51,3.85c-1.43-0.95-2.93-1.63-4.5-2.04c-1.57-0.42-2.99-0.63-4.28-0.63c-2.61,0-4.78,0.71-6.49,2.14
		c-1.97,1.61-2.96,3.76-2.96,6.42c0,2.57,0.96,4.64,2.88,6.2c1.73,1.45,4.02,2.18,6.85,2.18c1.36,0,2.7-0.15,4.03-0.46
		c1.33-0.3,2.53-0.72,3.6-1.24V167.21L171.4,167.21z M182.22,151.62h4.74v24.32h-4.74V151.62L182.22,151.62z M210.89,169.73h-11.41
		l-3.1,6.21h-4.35l11.27-24.33h4.21l11.56,24.33h-5.06L210.89,169.73L210.89,169.73z M209.6,166.41l-4.35-8.67l-4.42,8.67H209.6
		L209.6,166.41z M255.54,168.36l1.96,3.43c-0.47,0.47-1.21,1-2.21,1.56c-2.02,1.19-3.72,1.98-5.08,2.39c-1.37,0.4-3,0.6-4.91,0.6
		c-3.78,0-6.87-0.9-9.27-2.71c-1.43-1.07-2.54-2.38-3.35-3.95c-0.95-1.78-1.42-3.76-1.42-5.92c0-2.95,0.84-5.51,2.53-7.7
		c2.55-3.26,6.38-4.88,11.52-4.88c1.9,0,3.53,0.2,4.89,0.6c1.36,0.41,3.06,1.2,5.1,2.39c0.97,0.54,1.71,1.09,2.21,1.64l-1.96,3.42
		c-1.05-1.02-1.96-1.75-2.75-2.17c-2.14-1.19-4.41-1.78-6.82-1.78c-2.85,0-5.13,0.7-6.85,2.11c-2.02,1.62-3.03,3.74-3.03,6.38
		c0,2.62,1.01,4.74,3.03,6.38c1.72,1.38,4,2.07,6.85,2.07c2.4,0,4.67-0.6,6.82-1.78C253.55,170,254.47,169.31,255.54,168.36
		L255.54,168.36z M275.36,165.77v10.16h-4.74v-10.16l-9.8-14.16h5.6l6.63,9.59l6.77-9.59h5.31L275.36,165.77L275.36,165.77z
		 M309.13,163.2c3.04,1.02,4.57,2.94,4.57,5.74c0,2.21-0.76,3.94-2.28,5.2c-0.79,0.65-1.69,1.1-2.71,1.38
		c-1.02,0.27-2.31,0.41-3.85,0.41h-15.23v-24.32h15.05c1.56,0,2.81,0.12,3.74,0.36c0.92,0.24,1.73,0.64,2.42,1.21
		c1.38,1.11,2.07,2.74,2.07,4.88C312.91,160.45,311.65,162.16,309.13,163.2L309.13,163.2z M294.37,161.29H304
		c1.47,0,2.52-0.2,3.14-0.61c0.69-0.48,1.03-1.22,1.03-2.22c0-1.03-0.33-1.77-0.98-2.2c-0.66-0.44-1.72-0.66-3.19-0.66h-9.63V161.29
		L294.37,161.29z M294.37,171.96h9.31c1.74,0,3-0.24,3.78-0.71c0.92-0.53,1.39-1.39,1.39-2.61c0-1.22-0.46-2.09-1.39-2.64
		c-0.79-0.46-2.05-0.68-3.78-0.68h-9.31V171.96L294.37,171.96z M323.79,165.27v6.68h17.51v3.98h-22.25v-24.32h21.82v3.98h-17.08
		v5.81h11.73v3.87H323.79L323.79,165.27z M351.53,166v9.92h-4.74v-24.3h13.8c1.83,0,3.28,0.11,4.35,0.32c1.07,0.21,2,0.58,2.78,1.1
		c0.88,0.61,1.55,1.46,2,2.52c0.41,1.02,0.61,2.12,0.61,3.28c0,3.96-2.27,6.28-6.81,6.94l6.95,10.13h-5.17l-6.85-9.92H351.53
		L351.53,166z M351.53,161.99h8.49c1.24,0,2.11-0.04,2.62-0.11c0.51-0.07,1-0.21,1.48-0.43c1-0.5,1.5-1.38,1.5-2.64
		c0-1.29-0.5-2.17-1.5-2.64c-0.46-0.24-0.94-0.39-1.45-0.46c-0.51-0.07-1.39-0.11-2.65-0.11h-8.49V161.99L351.53,161.99z
		 M407.99,168.36l1.96,3.43c-0.47,0.47-1.21,1-2.21,1.56c-2.02,1.19-3.72,1.98-5.08,2.39c-1.37,0.4-3,0.6-4.91,0.6
		c-3.78,0-6.87-0.9-9.27-2.71c-1.43-1.07-2.54-2.38-3.35-3.95c-0.95-1.78-1.42-3.76-1.42-5.92c0-2.95,0.84-5.51,2.53-7.7
		c2.54-3.26,6.38-4.88,11.51-4.88c1.91,0,3.53,0.2,4.89,0.6c1.36,0.41,3.06,1.2,5.1,2.39c0.97,0.54,1.71,1.09,2.21,1.64l-1.96,3.42
		c-1.05-1.02-1.96-1.75-2.74-2.17c-2.14-1.19-4.41-1.78-6.82-1.78c-2.85,0-5.13,0.7-6.85,2.11c-2.02,1.62-3.03,3.74-3.03,6.38
		c0,2.62,1.01,4.74,3.03,6.38c1.72,1.38,4,2.07,6.85,2.07c2.4,0,4.67-0.6,6.82-1.78C406,170,406.92,169.31,407.99,168.36
		L407.99,168.36z M420.79,165.27v6.68h17.51v3.98h-22.25v-24.32h21.82v3.98h-17.08v5.81h11.74v3.87H420.79L420.79,165.27z
		 M448.11,159.28v16.65h-4.31v-24.32h4.27l15.99,16.3v-16.3h4.31v24.32h-3.85L448.11,159.28L448.11,159.28z M486.7,155.6v20.33
		h-4.74V155.6h-9.42v-3.98h23.57v3.98H486.7L486.7,155.6z M504.95,165.27v6.68h17.51v3.98h-22.25v-24.32h21.83v3.98h-17.08v5.81
		h11.74v3.87H504.95L504.95,165.27z M532.7,166v9.92h-4.74v-24.3h13.8c1.83,0,3.28,0.11,4.35,0.32c1.07,0.21,2,0.58,2.78,1.1
		c0.88,0.61,1.54,1.46,2,2.52c0.41,1.02,0.61,2.12,0.61,3.28c0,3.96-2.27,6.28-6.81,6.94l6.95,10.13h-5.17l-6.85-9.92H532.7
		L532.7,166z M532.7,161.99h8.49c1.24,0,2.11-0.04,2.62-0.11c0.51-0.07,1-0.21,1.48-0.43c1-0.5,1.5-1.38,1.5-2.64
		c0-1.29-0.5-2.17-1.5-2.64c-0.46-0.24-0.94-0.39-1.45-0.46c-0.51-0.07-1.39-0.11-2.65-0.11h-8.49V161.99L532.7,161.99z"/>
	<polygon class="st0" points="29.36,187.7 29.36,190.75 551.63,190.75 551.63,187.7 29.36,187.7 	"/>
</g>
</svg>
